<svg width="296" height="1386" viewBox="0 0 296 1386" fill="none" xmlns="http://www.w3.org/2000/svg">
<rect x="145.5" width="5" height="1386" fill="#33BC24"/>
<g clip-path="url(#clip0_268_303)">
<path opacity="0.7" d="M0.589996 171.03H136.59" stroke="#33BC24" stroke-width="2" stroke-dasharray="6 6"/>
<path d="M116.59 171.03C116.59 187.598 130.021 201.03 146.59 201.03C163.159 201.03 176.59 187.598 176.59 171.03C176.59 154.461 163.159 141.03 146.59 141.03C130.021 141.03 116.59 154.461 116.59 171.03Z" fill="#21E786" fill-opacity="0.2"/>
<path d="M131.59 171.03C131.59 179.314 138.306 186.03 146.59 186.03C154.874 186.03 161.59 179.314 161.59 171.03C161.59 162.746 154.874 156.03 146.59 156.03C138.306 156.03 131.59 162.746 131.59 171.03Z" fill="#21E786"/>
</g>
<g clip-path="url(#clip1_268_303)">
<path opacity="0.7" d="M295.41 379.03H159.41" stroke="#33BC24" stroke-width="2" stroke-dasharray="6 6"/>
<path d="M179.41 379.03C179.41 395.598 165.979 409.03 149.41 409.03C132.841 409.03 119.41 395.598 119.41 379.03C119.41 362.461 132.841 349.03 149.41 349.03C165.979 349.03 179.41 362.461 179.41 379.03Z" fill="#21E786" fill-opacity="0.2"/>
<path d="M164.41 379.03C164.41 387.314 157.694 394.03 149.41 394.03C141.126 394.03 134.41 387.314 134.41 379.03C134.41 370.746 141.126 364.03 149.41 364.03C157.694 364.03 164.41 370.746 164.41 379.03Z" fill="#21E786"/>
</g>
<g clip-path="url(#clip2_268_303)">
<path opacity="0.7" d="M0.589996 589.78H136.59" stroke="#33BC24" stroke-width="2" stroke-dasharray="6 6"/>
<path d="M116.59 589.78C116.59 606.348 130.021 619.78 146.59 619.78C163.159 619.78 176.59 606.348 176.59 589.78C176.59 573.211 163.159 559.78 146.59 559.78C130.021 559.78 116.59 573.211 116.59 589.78Z" fill="#21E786" fill-opacity="0.2"/>
<path d="M131.59 589.78C131.59 598.064 138.306 604.78 146.59 604.78C154.874 604.78 161.59 598.064 161.59 589.78C161.59 581.496 154.874 574.78 146.59 574.78C138.306 574.78 131.59 581.496 131.59 589.78Z" fill="#21E786"/>
</g>
<g clip-path="url(#clip3_268_303)">
<path opacity="0.7" d="M295.41 797.78H159.41" stroke="#33BC24" stroke-width="2" stroke-dasharray="6 6"/>
<path d="M179.41 797.78C179.41 814.348 165.979 827.78 149.41 827.78C132.841 827.78 119.41 814.348 119.41 797.78C119.41 781.211 132.841 767.78 149.41 767.78C165.979 767.78 179.41 781.211 179.41 797.78Z" fill="#21E786" fill-opacity="0.2"/>
<path d="M164.41 797.78C164.41 806.064 157.694 812.78 149.41 812.78C141.126 812.78 134.41 806.064 134.41 797.78C134.41 789.496 141.126 782.78 149.41 782.78C157.694 782.78 164.41 789.496 164.41 797.78Z" fill="#21E786"/>
</g>
<g clip-path="url(#clip4_268_303)">
<path opacity="0.7" d="M0.589996 1008.53H136.59" stroke="#33BC24" stroke-width="2" stroke-dasharray="6 6"/>
<path d="M116.59 1008.53C116.59 1025.1 130.021 1038.53 146.59 1038.53C163.159 1038.53 176.59 1025.1 176.59 1008.53C176.59 991.961 163.159 978.53 146.59 978.53C130.021 978.53 116.59 991.961 116.59 1008.53Z" fill="#21E786" fill-opacity="0.2"/>
<path d="M131.59 1008.53C131.59 1016.81 138.306 1023.53 146.59 1023.53C154.874 1023.53 161.59 1016.81 161.59 1008.53C161.59 1000.25 154.874 993.53 146.59 993.53C138.306 993.53 131.59 1000.25 131.59 1008.53Z" fill="#21E786"/>
</g>
<g clip-path="url(#clip5_268_303)">
<path opacity="0.7" d="M295.41 1216.53H159.41" stroke="#33BC24" stroke-width="2" stroke-dasharray="6 6"/>
<path d="M179.41 1216.53C179.41 1233.1 165.979 1246.53 149.41 1246.53C132.841 1246.53 119.41 1233.1 119.41 1216.53C119.41 1199.96 132.841 1186.53 149.41 1186.53C165.979 1186.53 179.41 1199.96 179.41 1216.53Z" fill="#21E786" fill-opacity="0.2"/>
<path d="M164.41 1216.53C164.41 1224.81 157.694 1231.53 149.41 1231.53C141.126 1231.53 134.41 1224.81 134.41 1216.53C134.41 1208.25 141.126 1201.53 149.41 1201.53C157.694 1201.53 164.41 1208.25 164.41 1216.53Z" fill="#21E786"/>
</g>
<defs>
<clipPath id="clip0_268_303">
<rect width="176" height="60" fill="white" transform="translate(0.589996 141.03)"/>
</clipPath>
<clipPath id="clip1_268_303">
<rect width="176" height="60" fill="white" transform="matrix(-1 0 0 1 295.41 349.03)"/>
</clipPath>
<clipPath id="clip2_268_303">
<rect width="176" height="60" fill="white" transform="translate(0.589996 559.78)"/>
</clipPath>
<clipPath id="clip3_268_303">
<rect width="176" height="60" fill="white" transform="matrix(-1 0 0 1 295.41 767.78)"/>
</clipPath>
<clipPath id="clip4_268_303">
<rect width="176" height="60" fill="white" transform="translate(0.589996 978.53)"/>
</clipPath>
<clipPath id="clip5_268_303">
<rect width="176" height="60" fill="white" transform="matrix(-1 0 0 1 295.41 1186.53)"/>
</clipPath>
</defs>
</svg>
