<svg width="295" height="959" viewBox="0 0 295 959" fill="none" xmlns="http://www.w3.org/2000/svg">
<rect x="144" width="5" height="959" fill="#33BC24"/>
<g clip-path="url(#clip0_964_8)">
<path opacity="0.7" d="M0 171.03H136" stroke="#33BC24" stroke-width="2" stroke-dasharray="6 6"/>
<path d="M116 171.03C116 187.598 129.431 201.03 146 201.03C162.569 201.03 176 187.598 176 171.03C176 154.461 162.569 141.03 146 141.03C129.431 141.03 116 154.461 116 171.03Z" fill="#21E786" fill-opacity="0.2"/>
<path d="M131 171.03C131 179.314 137.716 186.03 146 186.03C154.284 186.03 161 179.314 161 171.03C161 162.746 154.284 156.03 146 156.03C137.716 156.03 131 162.746 131 171.03Z" fill="#21E786"/>
</g>
<g clip-path="url(#clip1_964_8)">
<path opacity="0.7" d="M294.82 379.03H158.82" stroke="#33BC24" stroke-width="2" stroke-dasharray="6 6"/>
<path d="M178.82 379.03C178.82 395.598 165.389 409.03 148.82 409.03C132.252 409.03 118.82 395.598 118.82 379.03C118.82 362.461 132.252 349.03 148.82 349.03C165.389 349.03 178.82 362.461 178.82 379.03Z" fill="#21E786" fill-opacity="0.2"/>
<path d="M163.82 379.03C163.82 387.314 157.104 394.03 148.82 394.03C140.536 394.03 133.82 387.314 133.82 379.03C133.82 370.746 140.536 364.03 148.82 364.03C157.104 364.03 163.82 370.746 163.82 379.03Z" fill="#21E786"/>
</g>
<g clip-path="url(#clip2_964_8)">
<path opacity="0.7" d="M0 589.78H136" stroke="#33BC24" stroke-width="2" stroke-dasharray="6 6"/>
<path d="M116 589.78C116 606.348 129.431 619.78 146 619.78C162.569 619.78 176 606.348 176 589.78C176 573.211 162.569 559.78 146 559.78C129.431 559.78 116 573.211 116 589.78Z" fill="#21E786" fill-opacity="0.2"/>
<path d="M131 589.78C131 598.064 137.716 604.78 146 604.78C154.284 604.78 161 598.064 161 589.78C161 581.496 154.284 574.78 146 574.78C137.716 574.78 131 581.496 131 589.78Z" fill="#21E786"/>
</g>
<g clip-path="url(#clip3_964_8)">
<path opacity="0.7" d="M294.82 797.78H158.82" stroke="#33BC24" stroke-width="2" stroke-dasharray="6 6"/>
<path d="M178.82 797.78C178.82 814.348 165.389 827.78 148.82 827.78C132.252 827.78 118.82 814.348 118.82 797.78C118.82 781.211 132.252 767.78 148.82 767.78C165.389 767.78 178.82 781.211 178.82 797.78Z" fill="#21E786" fill-opacity="0.2"/>
<path d="M163.82 797.78C163.82 806.064 157.104 812.78 148.82 812.78C140.536 812.78 133.82 806.064 133.82 797.78C133.82 789.496 140.536 782.78 148.82 782.78C157.104 782.78 163.82 789.496 163.82 797.78Z" fill="#21E786"/>
</g>
<defs>
<clipPath id="clip0_964_8">
<rect width="176" height="60" fill="white" transform="translate(0 141.03)"/>
</clipPath>
<clipPath id="clip1_964_8">
<rect width="176" height="60" fill="white" transform="matrix(-1 0 0 1 294.82 349.03)"/>
</clipPath>
<clipPath id="clip2_964_8">
<rect width="176" height="60" fill="white" transform="translate(0 559.78)"/>
</clipPath>
<clipPath id="clip3_964_8">
<rect width="176" height="60" fill="white" transform="matrix(-1 0 0 1 294.82 767.78)"/>
</clipPath>
</defs>
</svg>
